<?xml version="1.0" standalone="no"?>
<svg xmlns:xlink="http://www.w3.org/1999/xlink" id="wave" style="transform:rotate(180deg); transition: 0.3s" viewBox="0 0 1440 100" version="1.1" xmlns="http://www.w3.org/2000/svg"><defs><linearGradient id="sw-gradient-0" x1="0" x2="0" y1="1" y2="0"><stop stop-color="rgba(208, 231, 255, 1)" offset="0%"/><stop stop-color="rgba(208, 231, 255, 1)" offset="100%"/></linearGradient></defs><path style="transform:translate(0, 0px); opacity:1" fill="url(#sw-gradient-0)" d="M0,80L24,78.3C48,77,96,73,144,63.3C192,53,240,37,288,33.3C336,30,384,40,432,43.3C480,47,528,43,576,35C624,27,672,13,720,21.7C768,30,816,60,864,66.7C912,73,960,57,1008,51.7C1056,47,1104,53,1152,56.7C1200,60,1248,60,1296,50C1344,40,1392,20,1440,16.7C1488,13,1536,27,1584,35C1632,43,1680,47,1728,50C1776,53,1824,57,1872,56.7C1920,57,1968,53,2016,53.3C2064,53,2112,57,2160,50C2208,43,2256,27,2304,23.3C2352,20,2400,30,2448,33.3C2496,37,2544,33,2592,35C2640,37,2688,43,2736,41.7C2784,40,2832,30,2880,23.3C2928,17,2976,13,3024,23.3C3072,33,3120,57,3168,58.3C3216,60,3264,40,3312,38.3C3360,37,3408,53,3432,61.7L3456,70L3456,100L3432,100C3408,100,3360,100,3312,100C3264,100,3216,100,3168,100C3120,100,3072,100,3024,100C2976,100,2928,100,2880,100C2832,100,2784,100,2736,100C2688,100,2640,100,2592,100C2544,100,2496,100,2448,100C2400,100,2352,100,2304,100C2256,100,2208,100,2160,100C2112,100,2064,100,2016,100C1968,100,1920,100,1872,100C1824,100,1776,100,1728,100C1680,100,1632,100,1584,100C1536,100,1488,100,1440,100C1392,100,1344,100,1296,100C1248,100,1200,100,1152,100C1104,100,1056,100,1008,100C960,100,912,100,864,100C816,100,768,100,720,100C672,100,624,100,576,100C528,100,480,100,432,100C384,100,336,100,288,100C240,100,192,100,144,100C96,100,48,100,24,100L0,100Z"/></svg>